<mxfile host="Electron" agent="Mozilla/5.0 (Windows NT 10.0; Win64; x64) AppleWebKit/537.36 (KHTML, like Gecko) draw.io/26.0.4 Chrome/128.0.6613.186 Electron/32.2.5 Safari/537.36" version="26.0.4" pages="2">
  <diagram name="S-box_Interface" id="XYcYYHVzyThMNdGd9sBT">
    <mxGraphModel dx="1050" dy="621" grid="0" gridSize="10" guides="1" tooltips="1" connect="1" arrows="1" fold="1" page="1" pageScale="1" pageWidth="1654" pageHeight="1169" math="0" shadow="0">
      <root>
        <mxCell id="0" />
        <mxCell id="1" parent="0" />
        <mxCell id="2LRNHVghBmu9k0wvzvOh-6" style="edgeStyle=orthogonalEdgeStyle;rounded=0;orthogonalLoop=1;jettySize=auto;html=1;exitX=0.5;exitY=0;exitDx=0;exitDy=0;entryX=0;entryY=0.5;entryDx=0;entryDy=0;" edge="1" parent="1" source="2LRNHVghBmu9k0wvzvOh-1" target="2LRNHVghBmu9k0wvzvOh-5">
          <mxGeometry relative="1" as="geometry" />
        </mxCell>
        <mxCell id="2LRNHVghBmu9k0wvzvOh-1" value="" style="rounded=0;whiteSpace=wrap;html=1;rotation=90;" vertex="1" parent="1">
          <mxGeometry x="420" y="220" width="120" height="80" as="geometry" />
        </mxCell>
        <mxCell id="2LRNHVghBmu9k0wvzvOh-2" value="S-box" style="text;html=1;align=center;verticalAlign=middle;whiteSpace=wrap;rounded=0;" vertex="1" parent="1">
          <mxGeometry x="450" y="245" width="60" height="30" as="geometry" />
        </mxCell>
        <mxCell id="2LRNHVghBmu9k0wvzvOh-4" style="edgeStyle=orthogonalEdgeStyle;rounded=0;orthogonalLoop=1;jettySize=auto;html=1;exitX=1;exitY=0.5;exitDx=0;exitDy=0;entryX=0.5;entryY=1;entryDx=0;entryDy=0;" edge="1" parent="1" source="2LRNHVghBmu9k0wvzvOh-3" target="2LRNHVghBmu9k0wvzvOh-1">
          <mxGeometry relative="1" as="geometry" />
        </mxCell>
        <mxCell id="2LRNHVghBmu9k0wvzvOh-3" value="re_xor_key[47:0]" style="text;html=1;align=center;verticalAlign=middle;whiteSpace=wrap;rounded=0;" vertex="1" parent="1">
          <mxGeometry x="280" y="245" width="100" height="30" as="geometry" />
        </mxCell>
        <mxCell id="2LRNHVghBmu9k0wvzvOh-5" value="p_in[31:0]" style="text;html=1;align=center;verticalAlign=middle;whiteSpace=wrap;rounded=0;" vertex="1" parent="1">
          <mxGeometry x="580" y="245" width="60" height="30" as="geometry" />
        </mxCell>
      </root>
    </mxGraphModel>
  </diagram>
  <diagram id="M-1UShSBpwpgNyccZ3wK" name="S-box_Design">
    <mxGraphModel dx="375" dy="222" grid="0" gridSize="10" guides="1" tooltips="1" connect="1" arrows="1" fold="1" page="1" pageScale="1" pageWidth="1654" pageHeight="1169" math="0" shadow="0">
      <root>
        <mxCell id="0" />
        <mxCell id="1" parent="0" />
        <mxCell id="yLb2jMHsZy5aVAmkKXcu-79" value="" style="rounded=0;whiteSpace=wrap;html=1;fillColor=#f8cecc;strokeColor=#b85450;" vertex="1" parent="1">
          <mxGeometry x="250" y="105" width="510" height="355" as="geometry" />
        </mxCell>
        <mxCell id="yLb2jMHsZy5aVAmkKXcu-14" style="edgeStyle=orthogonalEdgeStyle;rounded=0;orthogonalLoop=1;jettySize=auto;html=1;exitX=1;exitY=0.5;exitDx=0;exitDy=0;" edge="1" parent="1" source="yLb2jMHsZy5aVAmkKXcu-1">
          <mxGeometry relative="1" as="geometry">
            <mxPoint x="290" y="275" as="targetPoint" />
          </mxGeometry>
        </mxCell>
        <mxCell id="yLb2jMHsZy5aVAmkKXcu-1" value="re_xor_key[47:0]" style="text;html=1;align=center;verticalAlign=middle;whiteSpace=wrap;rounded=0;" vertex="1" parent="1">
          <mxGeometry x="130" y="260" width="100" height="30" as="geometry" />
        </mxCell>
        <mxCell id="yLb2jMHsZy5aVAmkKXcu-25" style="edgeStyle=orthogonalEdgeStyle;rounded=0;orthogonalLoop=1;jettySize=auto;html=1;exitX=1;exitY=0.5;exitDx=0;exitDy=0;entryX=0;entryY=0.5;entryDx=0;entryDy=0;" edge="1" parent="1" source="yLb2jMHsZy5aVAmkKXcu-4" target="yLb2jMHsZy5aVAmkKXcu-24">
          <mxGeometry relative="1" as="geometry" />
        </mxCell>
        <mxCell id="yLb2jMHsZy5aVAmkKXcu-4" value="re_xor_key[47:42]" style="text;html=1;align=center;verticalAlign=middle;whiteSpace=wrap;rounded=0;" vertex="1" parent="1">
          <mxGeometry x="320" y="120" width="100" height="30" as="geometry" />
        </mxCell>
        <mxCell id="yLb2jMHsZy5aVAmkKXcu-26" style="edgeStyle=orthogonalEdgeStyle;rounded=0;orthogonalLoop=1;jettySize=auto;html=1;exitX=1;exitY=0.5;exitDx=0;exitDy=0;entryX=0;entryY=0.5;entryDx=0;entryDy=0;" edge="1" parent="1" source="yLb2jMHsZy5aVAmkKXcu-5" target="yLb2jMHsZy5aVAmkKXcu-23">
          <mxGeometry relative="1" as="geometry" />
        </mxCell>
        <mxCell id="yLb2jMHsZy5aVAmkKXcu-5" value="re_xor_key[41:36]" style="text;html=1;align=center;verticalAlign=middle;whiteSpace=wrap;rounded=0;" vertex="1" parent="1">
          <mxGeometry x="320" y="160" width="100" height="30" as="geometry" />
        </mxCell>
        <mxCell id="yLb2jMHsZy5aVAmkKXcu-27" style="edgeStyle=orthogonalEdgeStyle;rounded=0;orthogonalLoop=1;jettySize=auto;html=1;exitX=1;exitY=0.5;exitDx=0;exitDy=0;entryX=0;entryY=0.5;entryDx=0;entryDy=0;" edge="1" parent="1" source="yLb2jMHsZy5aVAmkKXcu-6" target="yLb2jMHsZy5aVAmkKXcu-22">
          <mxGeometry relative="1" as="geometry" />
        </mxCell>
        <mxCell id="yLb2jMHsZy5aVAmkKXcu-6" value="re_xor_key[35:30]" style="text;html=1;align=center;verticalAlign=middle;whiteSpace=wrap;rounded=0;" vertex="1" parent="1">
          <mxGeometry x="320" y="200" width="100" height="30" as="geometry" />
        </mxCell>
        <mxCell id="yLb2jMHsZy5aVAmkKXcu-28" style="edgeStyle=orthogonalEdgeStyle;rounded=0;orthogonalLoop=1;jettySize=auto;html=1;exitX=1;exitY=0.5;exitDx=0;exitDy=0;entryX=0;entryY=0.5;entryDx=0;entryDy=0;" edge="1" parent="1" source="yLb2jMHsZy5aVAmkKXcu-7" target="yLb2jMHsZy5aVAmkKXcu-21">
          <mxGeometry relative="1" as="geometry" />
        </mxCell>
        <mxCell id="yLb2jMHsZy5aVAmkKXcu-7" value="re_xor_key[29:24]" style="text;html=1;align=center;verticalAlign=middle;whiteSpace=wrap;rounded=0;" vertex="1" parent="1">
          <mxGeometry x="320" y="240" width="100" height="30" as="geometry" />
        </mxCell>
        <mxCell id="yLb2jMHsZy5aVAmkKXcu-29" style="edgeStyle=orthogonalEdgeStyle;rounded=0;orthogonalLoop=1;jettySize=auto;html=1;exitX=1;exitY=0.5;exitDx=0;exitDy=0;entryX=0;entryY=0.5;entryDx=0;entryDy=0;" edge="1" parent="1" source="yLb2jMHsZy5aVAmkKXcu-8" target="yLb2jMHsZy5aVAmkKXcu-20">
          <mxGeometry relative="1" as="geometry" />
        </mxCell>
        <mxCell id="yLb2jMHsZy5aVAmkKXcu-8" value="re_xor_key[23:18]" style="text;html=1;align=center;verticalAlign=middle;whiteSpace=wrap;rounded=0;" vertex="1" parent="1">
          <mxGeometry x="320" y="280" width="100" height="30" as="geometry" />
        </mxCell>
        <mxCell id="yLb2jMHsZy5aVAmkKXcu-30" style="edgeStyle=orthogonalEdgeStyle;rounded=0;orthogonalLoop=1;jettySize=auto;html=1;exitX=1;exitY=0.5;exitDx=0;exitDy=0;entryX=0;entryY=0.5;entryDx=0;entryDy=0;" edge="1" parent="1" source="yLb2jMHsZy5aVAmkKXcu-9" target="yLb2jMHsZy5aVAmkKXcu-16">
          <mxGeometry relative="1" as="geometry" />
        </mxCell>
        <mxCell id="yLb2jMHsZy5aVAmkKXcu-9" value="re_xor_key[17:12]" style="text;html=1;align=center;verticalAlign=middle;whiteSpace=wrap;rounded=0;" vertex="1" parent="1">
          <mxGeometry x="320" y="320" width="100" height="30" as="geometry" />
        </mxCell>
        <mxCell id="yLb2jMHsZy5aVAmkKXcu-31" style="edgeStyle=orthogonalEdgeStyle;rounded=0;orthogonalLoop=1;jettySize=auto;html=1;exitX=1;exitY=0.5;exitDx=0;exitDy=0;entryX=0;entryY=0.5;entryDx=0;entryDy=0;" edge="1" parent="1" source="yLb2jMHsZy5aVAmkKXcu-10" target="yLb2jMHsZy5aVAmkKXcu-18">
          <mxGeometry relative="1" as="geometry" />
        </mxCell>
        <mxCell id="yLb2jMHsZy5aVAmkKXcu-10" value="re_xor_key[11:6]" style="text;html=1;align=center;verticalAlign=middle;whiteSpace=wrap;rounded=0;" vertex="1" parent="1">
          <mxGeometry x="320" y="360" width="100" height="30" as="geometry" />
        </mxCell>
        <mxCell id="yLb2jMHsZy5aVAmkKXcu-32" style="edgeStyle=orthogonalEdgeStyle;rounded=0;orthogonalLoop=1;jettySize=auto;html=1;exitX=1;exitY=0.5;exitDx=0;exitDy=0;entryX=0;entryY=0.5;entryDx=0;entryDy=0;" edge="1" parent="1" source="yLb2jMHsZy5aVAmkKXcu-11" target="yLb2jMHsZy5aVAmkKXcu-19">
          <mxGeometry relative="1" as="geometry" />
        </mxCell>
        <mxCell id="yLb2jMHsZy5aVAmkKXcu-11" value="re_xor_key[5:0]" style="text;html=1;align=center;verticalAlign=middle;whiteSpace=wrap;rounded=0;" vertex="1" parent="1">
          <mxGeometry x="320" y="400" width="100" height="30" as="geometry" />
        </mxCell>
        <mxCell id="yLb2jMHsZy5aVAmkKXcu-15" value="" style="shape=curlyBracket;whiteSpace=wrap;html=1;rounded=1;labelPosition=left;verticalLabelPosition=middle;align=right;verticalAlign=middle;" vertex="1" parent="1">
          <mxGeometry x="300" y="125" width="20" height="300" as="geometry" />
        </mxCell>
        <mxCell id="yLb2jMHsZy5aVAmkKXcu-56" style="edgeStyle=orthogonalEdgeStyle;rounded=0;orthogonalLoop=1;jettySize=auto;html=1;exitX=1;exitY=0.5;exitDx=0;exitDy=0;entryX=0.5;entryY=1;entryDx=0;entryDy=0;" edge="1" parent="1" source="yLb2jMHsZy5aVAmkKXcu-16" target="yLb2jMHsZy5aVAmkKXcu-39">
          <mxGeometry relative="1" as="geometry" />
        </mxCell>
        <mxCell id="yLb2jMHsZy5aVAmkKXcu-16" value="s6_in[5:0]" style="text;html=1;align=center;verticalAlign=middle;whiteSpace=wrap;rounded=0;" vertex="1" parent="1">
          <mxGeometry x="470" y="320" width="60" height="30" as="geometry" />
        </mxCell>
        <mxCell id="yLb2jMHsZy5aVAmkKXcu-57" style="edgeStyle=orthogonalEdgeStyle;rounded=0;orthogonalLoop=1;jettySize=auto;html=1;exitX=1;exitY=0.5;exitDx=0;exitDy=0;entryX=0.5;entryY=1;entryDx=0;entryDy=0;" edge="1" parent="1" source="yLb2jMHsZy5aVAmkKXcu-18" target="yLb2jMHsZy5aVAmkKXcu-40">
          <mxGeometry relative="1" as="geometry" />
        </mxCell>
        <mxCell id="yLb2jMHsZy5aVAmkKXcu-18" value="s7_in[5:0]" style="text;html=1;align=center;verticalAlign=middle;whiteSpace=wrap;rounded=0;" vertex="1" parent="1">
          <mxGeometry x="470" y="360" width="60" height="30" as="geometry" />
        </mxCell>
        <mxCell id="yLb2jMHsZy5aVAmkKXcu-58" style="edgeStyle=orthogonalEdgeStyle;rounded=0;orthogonalLoop=1;jettySize=auto;html=1;exitX=1;exitY=0.5;exitDx=0;exitDy=0;entryX=0.5;entryY=1;entryDx=0;entryDy=0;" edge="1" parent="1" source="yLb2jMHsZy5aVAmkKXcu-19" target="yLb2jMHsZy5aVAmkKXcu-41">
          <mxGeometry relative="1" as="geometry" />
        </mxCell>
        <mxCell id="yLb2jMHsZy5aVAmkKXcu-19" value="s8_in[5:0]" style="text;html=1;align=center;verticalAlign=middle;whiteSpace=wrap;rounded=0;" vertex="1" parent="1">
          <mxGeometry x="470" y="400" width="60" height="30" as="geometry" />
        </mxCell>
        <mxCell id="yLb2jMHsZy5aVAmkKXcu-55" style="edgeStyle=orthogonalEdgeStyle;rounded=0;orthogonalLoop=1;jettySize=auto;html=1;exitX=1;exitY=0.5;exitDx=0;exitDy=0;entryX=0.5;entryY=1;entryDx=0;entryDy=0;" edge="1" parent="1" source="yLb2jMHsZy5aVAmkKXcu-20" target="yLb2jMHsZy5aVAmkKXcu-38">
          <mxGeometry relative="1" as="geometry" />
        </mxCell>
        <mxCell id="yLb2jMHsZy5aVAmkKXcu-20" value="s5_in[5:0]" style="text;html=1;align=center;verticalAlign=middle;whiteSpace=wrap;rounded=0;" vertex="1" parent="1">
          <mxGeometry x="470" y="280" width="60" height="30" as="geometry" />
        </mxCell>
        <mxCell id="yLb2jMHsZy5aVAmkKXcu-54" style="edgeStyle=orthogonalEdgeStyle;rounded=0;orthogonalLoop=1;jettySize=auto;html=1;exitX=1;exitY=0.5;exitDx=0;exitDy=0;entryX=0.5;entryY=1;entryDx=0;entryDy=0;" edge="1" parent="1" source="yLb2jMHsZy5aVAmkKXcu-21" target="yLb2jMHsZy5aVAmkKXcu-37">
          <mxGeometry relative="1" as="geometry" />
        </mxCell>
        <mxCell id="yLb2jMHsZy5aVAmkKXcu-21" value="s4_in[5:0]" style="text;html=1;align=center;verticalAlign=middle;whiteSpace=wrap;rounded=0;" vertex="1" parent="1">
          <mxGeometry x="470" y="240" width="60" height="30" as="geometry" />
        </mxCell>
        <mxCell id="yLb2jMHsZy5aVAmkKXcu-53" style="edgeStyle=orthogonalEdgeStyle;rounded=0;orthogonalLoop=1;jettySize=auto;html=1;exitX=1;exitY=0.5;exitDx=0;exitDy=0;entryX=0.5;entryY=1;entryDx=0;entryDy=0;" edge="1" parent="1" source="yLb2jMHsZy5aVAmkKXcu-22" target="yLb2jMHsZy5aVAmkKXcu-36">
          <mxGeometry relative="1" as="geometry" />
        </mxCell>
        <mxCell id="yLb2jMHsZy5aVAmkKXcu-22" value="s3_in[5:0]" style="text;html=1;align=center;verticalAlign=middle;whiteSpace=wrap;rounded=0;" vertex="1" parent="1">
          <mxGeometry x="470" y="200" width="60" height="30" as="geometry" />
        </mxCell>
        <mxCell id="yLb2jMHsZy5aVAmkKXcu-52" style="edgeStyle=orthogonalEdgeStyle;rounded=0;orthogonalLoop=1;jettySize=auto;html=1;exitX=1;exitY=0.5;exitDx=0;exitDy=0;entryX=0.5;entryY=1;entryDx=0;entryDy=0;" edge="1" parent="1" source="yLb2jMHsZy5aVAmkKXcu-23" target="yLb2jMHsZy5aVAmkKXcu-35">
          <mxGeometry relative="1" as="geometry" />
        </mxCell>
        <mxCell id="yLb2jMHsZy5aVAmkKXcu-23" value="s2_in[5:0]" style="text;html=1;align=center;verticalAlign=middle;whiteSpace=wrap;rounded=0;" vertex="1" parent="1">
          <mxGeometry x="470" y="160" width="60" height="30" as="geometry" />
        </mxCell>
        <mxCell id="yLb2jMHsZy5aVAmkKXcu-51" style="edgeStyle=orthogonalEdgeStyle;rounded=0;orthogonalLoop=1;jettySize=auto;html=1;exitX=1;exitY=0.5;exitDx=0;exitDy=0;entryX=0.5;entryY=1;entryDx=0;entryDy=0;" edge="1" parent="1" source="yLb2jMHsZy5aVAmkKXcu-24" target="yLb2jMHsZy5aVAmkKXcu-33">
          <mxGeometry relative="1" as="geometry" />
        </mxCell>
        <mxCell id="yLb2jMHsZy5aVAmkKXcu-24" value="s1_in[5:0]" style="text;html=1;align=center;verticalAlign=middle;whiteSpace=wrap;rounded=0;" vertex="1" parent="1">
          <mxGeometry x="470" y="120" width="60" height="30" as="geometry" />
        </mxCell>
        <mxCell id="yLb2jMHsZy5aVAmkKXcu-67" style="edgeStyle=orthogonalEdgeStyle;rounded=0;orthogonalLoop=1;jettySize=auto;html=1;exitX=0.5;exitY=0;exitDx=0;exitDy=0;entryX=0;entryY=0.5;entryDx=0;entryDy=0;" edge="1" parent="1" source="yLb2jMHsZy5aVAmkKXcu-33" target="yLb2jMHsZy5aVAmkKXcu-59">
          <mxGeometry relative="1" as="geometry" />
        </mxCell>
        <mxCell id="yLb2jMHsZy5aVAmkKXcu-33" value="" style="rounded=0;whiteSpace=wrap;html=1;rotation=90;" vertex="1" parent="1">
          <mxGeometry x="560" y="120" width="30" height="30" as="geometry" />
        </mxCell>
        <mxCell id="yLb2jMHsZy5aVAmkKXcu-68" style="edgeStyle=orthogonalEdgeStyle;rounded=0;orthogonalLoop=1;jettySize=auto;html=1;exitX=0.5;exitY=0;exitDx=0;exitDy=0;entryX=0;entryY=0.5;entryDx=0;entryDy=0;" edge="1" parent="1" source="yLb2jMHsZy5aVAmkKXcu-35" target="yLb2jMHsZy5aVAmkKXcu-60">
          <mxGeometry relative="1" as="geometry" />
        </mxCell>
        <mxCell id="yLb2jMHsZy5aVAmkKXcu-35" value="" style="rounded=0;whiteSpace=wrap;html=1;rotation=90;" vertex="1" parent="1">
          <mxGeometry x="560" y="160" width="30" height="30" as="geometry" />
        </mxCell>
        <mxCell id="yLb2jMHsZy5aVAmkKXcu-69" style="edgeStyle=orthogonalEdgeStyle;rounded=0;orthogonalLoop=1;jettySize=auto;html=1;exitX=0.5;exitY=0;exitDx=0;exitDy=0;entryX=0;entryY=0.5;entryDx=0;entryDy=0;" edge="1" parent="1" source="yLb2jMHsZy5aVAmkKXcu-36" target="yLb2jMHsZy5aVAmkKXcu-61">
          <mxGeometry relative="1" as="geometry" />
        </mxCell>
        <mxCell id="yLb2jMHsZy5aVAmkKXcu-36" value="" style="rounded=0;whiteSpace=wrap;html=1;rotation=90;" vertex="1" parent="1">
          <mxGeometry x="560" y="200" width="30" height="30" as="geometry" />
        </mxCell>
        <mxCell id="yLb2jMHsZy5aVAmkKXcu-70" style="edgeStyle=orthogonalEdgeStyle;rounded=0;orthogonalLoop=1;jettySize=auto;html=1;exitX=0.5;exitY=0;exitDx=0;exitDy=0;entryX=0;entryY=0.5;entryDx=0;entryDy=0;" edge="1" parent="1" source="yLb2jMHsZy5aVAmkKXcu-37" target="yLb2jMHsZy5aVAmkKXcu-62">
          <mxGeometry relative="1" as="geometry" />
        </mxCell>
        <mxCell id="yLb2jMHsZy5aVAmkKXcu-37" value="" style="rounded=0;whiteSpace=wrap;html=1;rotation=90;" vertex="1" parent="1">
          <mxGeometry x="560" y="240" width="30" height="30" as="geometry" />
        </mxCell>
        <mxCell id="yLb2jMHsZy5aVAmkKXcu-71" style="edgeStyle=orthogonalEdgeStyle;rounded=0;orthogonalLoop=1;jettySize=auto;html=1;exitX=0.5;exitY=0;exitDx=0;exitDy=0;entryX=0;entryY=0.5;entryDx=0;entryDy=0;" edge="1" parent="1" source="yLb2jMHsZy5aVAmkKXcu-38" target="yLb2jMHsZy5aVAmkKXcu-63">
          <mxGeometry relative="1" as="geometry" />
        </mxCell>
        <mxCell id="yLb2jMHsZy5aVAmkKXcu-38" value="" style="rounded=0;whiteSpace=wrap;html=1;rotation=90;" vertex="1" parent="1">
          <mxGeometry x="560" y="280" width="30" height="30" as="geometry" />
        </mxCell>
        <mxCell id="yLb2jMHsZy5aVAmkKXcu-72" style="edgeStyle=orthogonalEdgeStyle;rounded=0;orthogonalLoop=1;jettySize=auto;html=1;exitX=0.5;exitY=0;exitDx=0;exitDy=0;entryX=0;entryY=0.5;entryDx=0;entryDy=0;" edge="1" parent="1" source="yLb2jMHsZy5aVAmkKXcu-39" target="yLb2jMHsZy5aVAmkKXcu-64">
          <mxGeometry relative="1" as="geometry" />
        </mxCell>
        <mxCell id="yLb2jMHsZy5aVAmkKXcu-39" value="" style="rounded=0;whiteSpace=wrap;html=1;rotation=90;" vertex="1" parent="1">
          <mxGeometry x="560" y="320" width="30" height="30" as="geometry" />
        </mxCell>
        <mxCell id="yLb2jMHsZy5aVAmkKXcu-73" style="edgeStyle=orthogonalEdgeStyle;rounded=0;orthogonalLoop=1;jettySize=auto;html=1;exitX=0.5;exitY=0;exitDx=0;exitDy=0;entryX=0;entryY=0.5;entryDx=0;entryDy=0;" edge="1" parent="1" source="yLb2jMHsZy5aVAmkKXcu-40" target="yLb2jMHsZy5aVAmkKXcu-65">
          <mxGeometry relative="1" as="geometry" />
        </mxCell>
        <mxCell id="yLb2jMHsZy5aVAmkKXcu-40" value="" style="rounded=0;whiteSpace=wrap;html=1;rotation=90;" vertex="1" parent="1">
          <mxGeometry x="560" y="360" width="30" height="30" as="geometry" />
        </mxCell>
        <mxCell id="yLb2jMHsZy5aVAmkKXcu-74" style="edgeStyle=orthogonalEdgeStyle;rounded=0;orthogonalLoop=1;jettySize=auto;html=1;exitX=0.5;exitY=0;exitDx=0;exitDy=0;entryX=0;entryY=0.5;entryDx=0;entryDy=0;" edge="1" parent="1" source="yLb2jMHsZy5aVAmkKXcu-41" target="yLb2jMHsZy5aVAmkKXcu-66">
          <mxGeometry relative="1" as="geometry" />
        </mxCell>
        <mxCell id="yLb2jMHsZy5aVAmkKXcu-41" value="" style="rounded=0;whiteSpace=wrap;html=1;rotation=90;" vertex="1" parent="1">
          <mxGeometry x="560" y="400" width="30" height="30" as="geometry" />
        </mxCell>
        <mxCell id="yLb2jMHsZy5aVAmkKXcu-43" value="S1" style="text;html=1;align=center;verticalAlign=middle;whiteSpace=wrap;rounded=0;" vertex="1" parent="1">
          <mxGeometry x="565" y="125" width="20" height="20" as="geometry" />
        </mxCell>
        <mxCell id="yLb2jMHsZy5aVAmkKXcu-44" value="S2" style="text;html=1;align=center;verticalAlign=middle;whiteSpace=wrap;rounded=0;" vertex="1" parent="1">
          <mxGeometry x="565" y="165" width="20" height="20" as="geometry" />
        </mxCell>
        <mxCell id="yLb2jMHsZy5aVAmkKXcu-45" value="S3" style="text;html=1;align=center;verticalAlign=middle;whiteSpace=wrap;rounded=0;" vertex="1" parent="1">
          <mxGeometry x="565" y="205" width="20" height="20" as="geometry" />
        </mxCell>
        <mxCell id="yLb2jMHsZy5aVAmkKXcu-46" value="S4" style="text;html=1;align=center;verticalAlign=middle;whiteSpace=wrap;rounded=0;" vertex="1" parent="1">
          <mxGeometry x="565" y="245" width="20" height="20" as="geometry" />
        </mxCell>
        <mxCell id="yLb2jMHsZy5aVAmkKXcu-47" value="S5" style="text;html=1;align=center;verticalAlign=middle;whiteSpace=wrap;rounded=0;" vertex="1" parent="1">
          <mxGeometry x="565" y="285" width="20" height="20" as="geometry" />
        </mxCell>
        <mxCell id="yLb2jMHsZy5aVAmkKXcu-48" value="S6" style="text;html=1;align=center;verticalAlign=middle;whiteSpace=wrap;rounded=0;" vertex="1" parent="1">
          <mxGeometry x="565" y="325" width="20" height="20" as="geometry" />
        </mxCell>
        <mxCell id="yLb2jMHsZy5aVAmkKXcu-49" value="S7" style="text;html=1;align=center;verticalAlign=middle;whiteSpace=wrap;rounded=0;" vertex="1" parent="1">
          <mxGeometry x="565" y="365" width="20" height="20" as="geometry" />
        </mxCell>
        <mxCell id="yLb2jMHsZy5aVAmkKXcu-50" value="S8" style="text;html=1;align=center;verticalAlign=middle;whiteSpace=wrap;rounded=0;" vertex="1" parent="1">
          <mxGeometry x="565" y="405" width="20" height="20" as="geometry" />
        </mxCell>
        <mxCell id="yLb2jMHsZy5aVAmkKXcu-59" value="s1_out[5:0]" style="text;html=1;align=center;verticalAlign=middle;whiteSpace=wrap;rounded=0;" vertex="1" parent="1">
          <mxGeometry x="620" y="120" width="60" height="30" as="geometry" />
        </mxCell>
        <mxCell id="yLb2jMHsZy5aVAmkKXcu-60" value="s2_out[5:0]" style="text;html=1;align=center;verticalAlign=middle;whiteSpace=wrap;rounded=0;" vertex="1" parent="1">
          <mxGeometry x="620" y="160" width="60" height="30" as="geometry" />
        </mxCell>
        <mxCell id="yLb2jMHsZy5aVAmkKXcu-61" value="s3_out[5:0]" style="text;html=1;align=center;verticalAlign=middle;whiteSpace=wrap;rounded=0;" vertex="1" parent="1">
          <mxGeometry x="620" y="200" width="60" height="30" as="geometry" />
        </mxCell>
        <mxCell id="yLb2jMHsZy5aVAmkKXcu-62" value="s4_out[5:0]" style="text;html=1;align=center;verticalAlign=middle;whiteSpace=wrap;rounded=0;" vertex="1" parent="1">
          <mxGeometry x="620" y="240" width="60" height="30" as="geometry" />
        </mxCell>
        <mxCell id="yLb2jMHsZy5aVAmkKXcu-63" value="s5_out[5:0]" style="text;html=1;align=center;verticalAlign=middle;whiteSpace=wrap;rounded=0;" vertex="1" parent="1">
          <mxGeometry x="620" y="280" width="60" height="30" as="geometry" />
        </mxCell>
        <mxCell id="yLb2jMHsZy5aVAmkKXcu-64" value="s6_out[5:0]" style="text;html=1;align=center;verticalAlign=middle;whiteSpace=wrap;rounded=0;" vertex="1" parent="1">
          <mxGeometry x="620" y="320" width="60" height="30" as="geometry" />
        </mxCell>
        <mxCell id="yLb2jMHsZy5aVAmkKXcu-65" value="s7_out[5:0]" style="text;html=1;align=center;verticalAlign=middle;whiteSpace=wrap;rounded=0;" vertex="1" parent="1">
          <mxGeometry x="620" y="360" width="60" height="30" as="geometry" />
        </mxCell>
        <mxCell id="yLb2jMHsZy5aVAmkKXcu-66" value="s8_out[5:0]" style="text;html=1;align=center;verticalAlign=middle;whiteSpace=wrap;rounded=0;" vertex="1" parent="1">
          <mxGeometry x="620" y="400" width="60" height="30" as="geometry" />
        </mxCell>
        <mxCell id="yLb2jMHsZy5aVAmkKXcu-77" style="edgeStyle=orthogonalEdgeStyle;rounded=0;orthogonalLoop=1;jettySize=auto;html=1;exitX=0.1;exitY=0.5;exitDx=0;exitDy=0;exitPerimeter=0;entryX=0;entryY=0.5;entryDx=0;entryDy=0;" edge="1" parent="1" source="yLb2jMHsZy5aVAmkKXcu-75" target="yLb2jMHsZy5aVAmkKXcu-76">
          <mxGeometry relative="1" as="geometry" />
        </mxCell>
        <mxCell id="yLb2jMHsZy5aVAmkKXcu-75" value="" style="shape=curlyBracket;whiteSpace=wrap;html=1;rounded=1;labelPosition=left;verticalLabelPosition=middle;align=right;verticalAlign=middle;direction=west;" vertex="1" parent="1">
          <mxGeometry x="690" y="125" width="20" height="300" as="geometry" />
        </mxCell>
        <mxCell id="yLb2jMHsZy5aVAmkKXcu-76" value="p_in[31:0]" style="text;html=1;align=center;verticalAlign=middle;whiteSpace=wrap;rounded=0;" vertex="1" parent="1">
          <mxGeometry x="797" y="260" width="60" height="30" as="geometry" />
        </mxCell>
      </root>
    </mxGraphModel>
  </diagram>
</mxfile>
